<?xml version="1.0" encoding="utf-8"?>
<!-- Generator: Adobe Illustrator 24.2.0, SVG Export Plug-In . SVG Version: 6.00 Build 0)  -->
<svg version="1.1" id="Layer_1" xmlns="http://www.w3.org/2000/svg" xmlns:xlink="http://www.w3.org/1999/xlink" x="0px" y="0px"
	 viewBox="0 0 232.6 232" style="enable-background:new 0 0 232.6 232;" xml:space="preserve">
<style type="text/css">
	.st0{fill:#FFFFFF;}
</style>
<path d="M232.6,116c0,64.2-52.3,116-116.5,116C52.3,232,0,180.2,0,116C0,51.9,52.3,0,116.1,0C180.3,0,232.6,51.9,232.6,116z"/>
<g>
	<path class="st0" d="M127.2,51.8l-6.4,56.4l45.8-33.3l10.9,18.3l-52.5,22.7l52.1,22.7l-10.6,18.8l-46.2-34.6l6.8,57.3h-21.8
		l6.4-56.6L66,157.1l-10.9-18.4l52.5-23.1L55.4,93.2L66,74.6l45.8,33.3l-6.4-56H127.2z"/>
</g>
</svg>
